<?xml version="1.0" encoding="UTF-8" standalone="no"?>
<svg xmlns:rdf="http://www.w3.org/1999/02/22-rdf-syntax-ns#" xmlns="http://www.w3.org/2000/svg" xml:space="preserve" viewBox="0 0 137 137" version="1.1" xmlns:cc="http://creativecommons.org/ns#" xmlns:dc="http://purl.org/dc/elements/1.1/" height="137" width="137"><g transform="matrix(1.25 0 0 -1.25 -233.95 807.91)"><g transform="translate(.99345 .40436)"><path d="m294.96 591.12c0-29.824-24.176-54-54-54-29.823 0-54 24.176-54 54 0 29.823 24.177 54 54 54 29.824 0 54-24.177 54-54" fill="#c8102e"/><path d="m71.141 4.1914-0.516 5.1074c-0.145 1.43 0.60727 2.8413 2.666 3.0488 2.1 0.2125 3.2155-1.0106 3.373-2.5781l0.50195-4.9688-1.0332-0.10547-0.49023 4.8418c-0.167 1.664-1.278 1.995-2.226 1.899-0.929-0.094-1.897-0.656-1.728-2.3188l0.488-4.8203-1.035-0.1055zm-7.2988 0.023438-5.6328 0.50781 0.69531 7.7324 5.709-0.51367-0.08398-0.92578-4.6641 0.41992l-0.232-2.5834 4.234-0.3828-0.084-0.9258-4.234 0.3808-0.211-2.3691 4.586-0.4141-0.082-0.9258zm-8.3379 0.94531-6.1543 1.3184 0.19531 0.91016 2.5645-0.55078 1.4297 6.6719l1.022-0.221-1.429-6.6718 2.566-0.5488-0.195-0.9082zm25.047 0.14453-1.7012 7.5 0.98242 0.22461 1.375-6.0625 0.01953 0.00586 2.4414 6.9258 1.1387 0.25781 1.6992-7.502-0.98047-0.22266-1.375 6.0605-0.02148-0.0059-2.375-6.9102-1.2031-0.27148zm-34.967 2.4512-1.125 0.39062-0.21094 8.3066 1.0234-0.35547 0.02344-2.4062 2.9473-1.0234 1.4707 1.8867 1.084-0.37695-5.2129-6.4219zm44.209 0.088-2.629 7.2692 0.981 0.356 2.63-7.2717-0.982-0.3535zm-44.422 1.2129 2.209 2.8574-2.2832 0.79102 0.05469-3.6426 0.01953-0.00586zm48.162 0.14258-0.96875 8.1543 0.98828 0.49805 5.9902-5.6113-1.0449-0.5293-4.9102 4.8828-0.02148-0.0098 1.002-6.8613-1.0352-0.52344zm-52.816 0.44336-5.6523 2.7637 0.4082 0.83398 2.3555-1.1523 2.9941 6.127 0.94141-0.46094-2.9961-6.125l2.358-1.152-0.408-0.8344zm61.225 3.9766-4.332 6.4199 4.7383 3.1953 0.51953-0.76758-3.8711-2.6133 1.4473-2.1445 3.5137 2.3691 0.51953-0.76758-3.5137-2.3711 1.3262-1.9668 3.8086 2.5703 0.51953-0.76953-4.6758-3.1543zm-69.91 1.1953c-0.55496-0.0035-1.2334 0.21-2.0547 0.80859-1.5188 1.105-1.4554 2.5284-0.74414 3.5059 0.795 1.09 1.9282 0.70445 2.4082 0.50195l1.5-0.63672c1.2088-0.50625 1.6651-0.51828 2.1426 0.13672 0.65375 0.8975-0.26305 1.8043-0.87305 2.248-0.8025 0.585-1.9687 0.92797-2.7949-0.20703l-0.792 0.579c0.425 0.585 0.91047 1.0318 1.793 1.123 0.46375 0.05 1.172 0.06961 2.332-0.77539 1.0725-0.78125 2.1523-2.1972 1.0723-3.6797-0.725-0.995-1.6913-1.0374-2.6426-0.63867l-2.0859 0.89258c-0.43 0.18-0.93156 0.27859-1.3203-0.25391-0.6925-0.95 0.09836-1.7531 0.63086-2.1406 0.70625-0.515 1.7298-0.79562 2.4785 0.14062l0.795-0.576c-0.33516-0.41484-0.91881-1.0214-1.8438-1.0273zm35.598 2.5703c-27.461 0.02875-49.787 22.34-49.787 49.746v0.08008c0 13.28 5.1797 25.771 14.586 35.176 9.4138 9.4112 21.915 14.585 35.201 14.57 13.25 0.015 25.731-5.1505 35.141-14.543 9.435-9.4175 14.637-21.932 14.648-35.242-0.0225-27.425-22.358-49.758-49.789-49.787zm0 0.47852c27.168 0.02875 49.288 22.149 49.311 49.309-0.01 13.181-5.1641 25.578-14.508 34.904-9.32 9.3025-21.68 14.416-34.803 14.402-13.159 0.0138-25.539-5.1109-34.861-14.43-9.326-9.326-14.457-21.711-14.447-34.878v-0.002c-0.02125-27.16 22.099-49.278 49.309-49.307zm41.693 1.3086-5.3359 5.5684 0.7539 0.7207 2.2871-2.3887 1.8242 1.7461c0.89875 0.8625 0.47781 1.4859 0.0391 1.9434-0.19875 0.21-0.98632 1.0784-1.2051 1.5234l0.92187 0.88477 0.1211-0.125c-0.1075-0.355-0.0349-0.50672 0.2539-0.82422l0.91992-1.0547c0.7125-0.805 0.53039-1.248 0.33789-1.6855 0.5575 0.1325 1.2652 0.23266 2.0527-0.58984 1.13-1.1788 0.52047-2.3745-0.39453-3.252l-2.5762-2.4668zm-41.693 0.02148c-12.838 0.0062-24.903 5.0167-33.975 14.105-9.0312 9.0488-14.002 21.053-14.002 33.807v0.13086c0 26.429 21.508 47.956 47.977 47.998 26.449-0.0425 47.971-21.603 47.979-48.063-0.008-26.441-21.53-47.965-47.979-47.979zm0 0.47852c26.184 0.01375 47.494 21.324 47.5 47.5-0.006 26.196-21.316 47.541-47.5 47.584-26.226-0.0425-47.534-21.388-47.498-47.584-0.0175-12.651 4.907-24.561 13.863-33.535 8.9812-8.9988 20.926-13.959 33.635-13.965zm41.83 0.86523 1.875 1.7988c0.3725 0.35625 0.93438 1.0287 0.10938 1.8887-0.7875 0.8225-1.5034 0.40445-2.0547-0.12305l-1.7441-1.6719 1.8144-1.8926zm-41.83 0.4668c-25.469 0-46.218 20.71-46.254 46.166 0.03625 25.476 20.785 46.227 46.254 46.256 25.464-0.0288 46.175-20.78 46.168-46.256 0.004-12.308-4.8018-23.892-13.529-32.623-8.734-8.734-20.326-13.543-32.641-13.543zm0 0.47852c12.188 0 23.66 4.7605 32.301 13.404 8.6375 8.64 13.392 20.104 13.389 32.283 0.008 25.212-20.489 45.749-45.689 45.777-25.205-0.0288-45.739-20.565-45.775-45.777 0.03625-25.192 20.57-45.688 45.775-45.688zm0 1.3301c-24.485-0.015-44.422 19.886-44.443 44.359 0.02125 24.492 19.958 44.43 44.443 44.445 11.832-0.007 22.969-4.6405 31.359-13.043 8.3925-8.405 13.011-19.557 13-31.402 0.0112-11.821-4.6048-22.954-12.996-31.348-8.396-8.397-19.534-13.019-31.364-13.012zm0 0.47852c11.701-0.0075 22.72 4.5636 31.023 12.871 8.3012 8.3025 12.867 19.316 12.857 31.01 0.01 11.718-4.5569 22.749-12.859 31.064-8.3 8.3125-19.316 12.893-31.021 12.9-24.221-0.015-43.944-19.736-43.965-43.965 0.02125-24.21 19.744-43.896 43.965-43.881zm-46.43 0.43555-0.78125 0.88867 3.8809 7.2852 0.71094-0.80859-1.1543-2.0898 2.0469-2.3262 2.1934 0.91016 0.75391-0.85547-7.6504-3.0039zm46.43 0.89648c-11.372-0.01375-22.075 4.4095-30.135 12.457-8.0575 8.045-12.496 18.73-12.5 30.09 0.0075 23.509 19.134 42.637 42.635 42.637 11.364 0 22.052-4.4379 30.096-12.494 8.0488-8.06 12.471-18.765 12.455-30.143 0.0162-11.351-4.4062-22.035-12.451-30.082-8.05-8.0525-18.738-12.479-30.1-12.465zm-45.977 0.33398 3.3066 1.3887-1.5859 1.8008-1.7344-3.1738 0.01367-0.01563zm45.977 0.14453c11.232-0.01375 21.802 4.3623 29.762 12.322 7.955 7.9575 12.328 18.522 12.311 29.746 0.0175 11.25-4.357 21.834-12.314 29.803-7.9538 7.9675-18.523 12.354-29.758 12.354-23.238 0-42.149-18.911-42.156-42.156 0.0038-11.232 4.3919-21.798 12.359-29.752 7.9688-7.9562 18.552-12.33 29.797-12.316zm47.912 1.8164c-0.4518 0.03508-0.88149 0.20984-1.248 0.47656-1.09 0.795-0.7032 1.9289-0.50195 2.4102l0.63867 1.498c0.505 1.2075 0.51828 1.6663-0.13672 2.1426-0.89875 0.65375-1.805-0.26109-2.25-0.87109-0.585-0.8025-0.92797-1.9687 0.20703-2.7949l-0.57812-0.79297c-0.585 0.425-1.0325 0.91047-1.125 1.793-0.05 0.4625-0.0689 1.1708 0.77734 2.332 0.78125 1.0725 2.1959 2.1523 3.6797 1.0723 0.995-0.725 1.0387-1.6913 0.63867-2.6426l-0.89-2.09c-0.18-0.43-0.27859-0.93281 0.25391-1.3203 0.95125-0.6925 1.7531 0.09961 2.1406 0.63086 0.515 0.7075 0.79492 1.7317-0.14258 2.4805l0.58008 0.79297c0.66375-0.53625 1.8138-1.7065 0.21875-3.8965-0.6914-0.94922-1.5068-1.2811-2.2598-1.2227zm-98.305 1.291-0.60938 0.97852 4.5801 4.5605-0.01172 0.01953-6.2656-1.8613-0.60547 0.9707 4.4277 4.8066-0.0098 0.01953-6.1113-2.1074-0.60156 0.96289 7.6426 2.3867 0.58203-0.93555-4.5-4.916 0.01172-0.01758 6.3828 1.8945 0.58203-0.93359-5.4941-5.8281zm103.91 5.1074-6.6523 4.0215 0.54297 0.89844 6.6523-4.0215-0.54297-0.89844zm1.9199 3.334-0.84375 0.37891 1.0742 2.3809-6.1953 2.791 0.42773 0.95117 6.1953-2.791 1.0723 2.3828 0.84375-0.38086-2.5742-5.7129zm-110.6 3.417c-1.2233 0.06541-2.4746 0.66836-3.1426 2.3457-1.0675 2.685 0.84008 4.3942 2.3926 5.0117s4.1129 0.6857 5.1816-1.998c1.0675-2.685-0.83812-4.3962-2.3906-5.0137-0.58219-0.23203-1.307-0.38495-2.041-0.3457zm0.40234 1.0527c0.39848 0.02803 0.81484 0.12648 1.2383 0.29492 1.6925 0.67375 2.5509 2.1042 1.9297 3.668-0.6225 1.5625-2.2294 2.0136-3.9219 1.3398-1.6938-0.67375-2.5502-2.1042-1.9277-3.668 0.46594-1.1719 1.4862-1.7188 2.6816-1.6348zm113.59 3.0117-3.5898 4.1445-2.9883 0.90234 0.30274 1.002 2.9883-0.90234 5.2832 1.4629-0.35547-1.1797-4.2129-1.0527 2.9258-3.207-0.35351-1.1699zm-119.2 4.5371-0.29297 1.0039 7.4258 2.166 0.29297-1.0039-7.4258-2.166zm46.227 6.332c-0.03875 0.11-0.07797 0.19727-0.26172 0.19727-0.23 0-0.60328-0.18945-1.2383-0.18945-1.5112 0-1.7578 0.78156-1.7578 1.1328 0 0.26375-0.000625 0.75797 1.3594 1.2305l0.53125 0.18555c0.5175 0.17875 0.89062 0.31492 0.89062 0.70117 0 0.075-0.03844 0.64453-0.99219 0.64453-1.01 0-1.4709-0.65117-1.6309-1.2324h-0.23047v1.4219h0.23047c0.0325-0.09125 0.07203-0.19531 0.23828-0.19531 0.2475 0 0.60508 0.19531 1.3613 0.19531 1.4625 0 1.9688-0.69688 1.9688-1.2031 0-0.6275-0.60305-0.96109-0.87305-1.0586l-1.1699-0.41992c-0.6675-0.2425-0.81836-0.36773-0.81836-0.67773 0-0.375 0.43711-0.54688 0.84961-0.54688 0.93875 0 1.418 0.66195 1.5605 1.0645h0.2207v-1.25h-0.23828zm4.0156 0.0078c-1.67 0-2.8145 0.89695-2.8145 2.0645 0 1.0762 1.001 2.0195 2.8535 2.0195 1.0175 0 1.6368-0.36234 2.2168-0.83984l-0.23828-0.14258c-0.65875 0.535-1.255 0.70703-1.875 0.70703-0.2475 0-0.87523-0.08695-1.209-0.50195-0.29375-0.3675-0.33984-0.92062-0.33984-1.2656 0-0.9725 0.30875-1.8516 1.4688-1.8516 0.90625 0 1.5748 0.67258 1.8535 1.1738h0.19726v-1.3457h-0.21484c-0.08 0.14375-0.15024 0.26367-0.36524 0.26367-0.20625 0-0.81695-0.28125-1.5332-0.28125zm19.793 0c-1.6688 0-2.8125 0.89695-2.8125 2.0645 0 1.0762 1.0023 2.0195 2.8535 2.0195 1.0175 0 1.6368-0.36234 2.2168-0.83984l-0.23828-0.14258c-0.65875 0.535-1.255 0.70703-1.875 0.70703-0.2475 0-0.87523-0.08695-1.209-0.50195-0.29375-0.3675-0.3418-0.92062-0.3418-1.2656 0-0.9725 0.3107-1.8516 1.4707-1.8516 0.90625 0 1.5728 0.67258 1.8516 1.1738h0.19726v-1.3457h-0.21289c-0.07875 0.14375-0.15023 0.26367-0.36523 0.26367-0.2075 0-0.82016-0.28125-1.5352-0.28125zm-17.176 0.08594v0.14258c0.365 0.0175 0.74023 0.0282 0.74023 0.4082v2.7852c0 0.3575-0.31148 0.38141-0.74023 0.41016v0.14258h2.7812v-0.14258c-0.4375-0.02375-0.75391-0.04141-0.75391-0.41016v-2.7852c0-0.39125 0.38016-0.39695 0.75391-0.4082v-0.14258h-2.7812zm3.0605 0v0.14258c0.36625 0.0175 0.69922 0.03016 0.69922 0.41016v2.7852c0 0.35625-0.24672 0.3732-0.69922 0.4082v0.14258h4.6504l0.31641-1.1973h-0.22266c-0.5 0.86875-1.3111 1.0195-2.0898 1.0195-0.5175 0-0.66602-0.06852-0.66602-0.32227v-1.3926c0.78625 0 1.1909 0.17258 1.2871 0.89258h0.20508v-1.9453h-0.20508c-0.11875 0.71375-0.52461 0.86242-1.2871 0.85742v-1.3359c0-0.2475 0.14258-0.26953 0.58008-0.26953 1.0725 0 1.6359 0.14469 1.8184 0.96094h0.19922v-1.1562h-4.5859zm5.377 0v0.14258c0.1025 0 0.23078 0.01852 0.67578 0.41602v2.7266c0 0.38-0.22297 0.42094-0.69922 0.46094v0.14258h1.8027v-0.14258c-0.58875-0.04625-0.75391-0.15531-0.75391-0.57031v-2.3008h0.01563l3.5371 3.1172h0.22266v-3.3887c0-0.27625 0.04789-0.40844 0.61914-0.46094v-0.14258h-1.709v0.14258c0.645 0.035 0.74023 0.22531 0.74023 0.57031v1.7441h-0.01562l-2.7578-2.457h-1.6777zm11.402 0v0.14258c0.36625 0.0175 0.69922 0.03016 0.69922 0.41016v2.7852c0 0.35625-0.24547 0.3732-0.69922 0.4082v0.14258h4.6504l0.31641-1.1973h-0.22266c-0.5 0.86875-1.3118 1.0195-2.0918 1.0195-0.515 0-0.66602-0.06852-0.66602-0.32227v-1.3926c0.7875 0 1.1941 0.17258 1.2891 0.89258h0.20508v-1.9453h-0.20508c-0.11875 0.71375-0.52531 0.86242-1.2891 0.85742v-1.3359c0-0.2475 0.14258-0.26953 0.58008-0.26953 1.0725 0 1.6378 0.14469 1.8203 0.96094h0.19922v-1.1562h-4.5859zm46.523 1.9941-0.77539 2.1523h-2.498l1.9824 1.4648-0.86133 2.5 2.0664-1.6367 2.1562 1.6367-0.86328-2.5 1.9824-1.4648h-2.498l-0.69141-2.1523zm-117.96 0.08594-0.77734 2.1543h-2.4121l1.8965 1.4648-0.86328 2.498 2.1562-1.6367 2.1523 1.6367-0.86133-2.498 1.9824-1.4648h-2.5l-0.77344-2.1543zm58.379 5.6797c-0.38125 0-0.66016 0.22984-0.66016 0.49609 0 0.275 0.27016 0.49024 0.66016 0.49024 0.36375 0 0.65234-0.20898 0.65234-0.49024 0-0.27375-0.28859-0.49609-0.65234-0.49609zm4.1406 0.0957v0.15234c0.33 0.05125 0.44922 0.07039 0.44922 0.36914v3.25c0 0.3125-0.14422 0.33781-0.44922 0.38281v0.15234h2.0391v-0.15234c-0.39-0.0325-0.41406-0.21898-0.41406-0.36524v-1.7012c0-0.05625 0.36562-0.36719 0.70312-0.36719 0.4575 0 0.46484 0.34859 0.46484 0.52734v1.541c0 0.23625-0.11844 0.34524-0.39844 0.36524v0.15234h1.9902v-0.15234c-0.415 0-0.41406-0.27406-0.41406-0.38281v-1.5801c0-0.70125-0.67047-0.89844-1.1367-0.89844-0.44 0-0.80274 0.13859-1.209 0.49609v-1.7891h-1.625zm-1.3809 0.29297c-0.575 0.6175-0.95555 0.89805-1.4043 1.1855v0.16992h0.43945v2.0645c0.0075 0.13375 0.04203 0.66992 0.95703 0.66992 0.76125 0 1.0666-0.43914 1.2441-0.71289l-0.21289-0.07031c-0.09125 0.13375-0.23617 0.33008-0.48242 0.33008-0.3375 0-0.33008-0.26078-0.33008-0.36328v-1.918h0.79687v-0.2793h-0.79687v-1.0762h-0.21094zm-9.8457 1.0762v0.15234c0.22 0.0325 0.26242 0.07719 0.48242 0.49219l1.252 2.3828h0.20508l1.0312-1.9316h0.04297l0.8457 1.9316h0.19531l1.3125-2.5566c0.14375-0.28 0.26258-0.29336 0.42383-0.31836v-0.15234h-1.1445v0.15234c0.2375 0.02 0.40625 0.03258 0.40625 0.23633 0 0.14-0.42945 0.89781-0.6582 1.3828h-0.01758c-0.1525-0.4975-0.50781-1.3265-0.50781-1.459 0-0.135 0.18625-0.14766 0.40625-0.16016v-0.15234h-1.9824v0.15234c0.20375 0.02 0.29875 0.01984 0.375 0.15234 0.0425 0.0775 0.09273 0.20562 0.17773 0.42188l-0.57617 1.0879c-0.42375-0.85375-0.71289-1.337-0.71289-1.4707 0-0.16625 0.20352-0.17891 0.32226-0.19141v-0.15234h-1.8789zm6.0527 0v0.15234c0.3225 0.04375 0.44922 0.08875 0.44922 0.375v1.875c0 0.30625-0.14422 0.32531-0.44922 0.38281v0.15234h2.0234v-0.15234c-0.33-0.02625-0.39844-0.16774-0.39844-0.36524v-2.4199h-1.625zm57.371 4.5059-0.1211 1.2168 3.457 2.5684-3.9004 1.8242-0.12304 1.207 4.8672-2.4297 3.082 0.31055 0.10352-1.0332-3.0801-0.31055-4.2852-3.3535zm-114.5 0.247c-0.22618-0.0069-0.44578 0.000547-0.65234 0.02148-1.6525 0.16625-3.943 1.2831-3.6543 4.1406 0.28875 2.8588 2.7557 3.4917 4.4082 3.3242 1.6537-0.16625 3.943-1.2812 3.6543-4.1387-0.25156-2.5003-2.1726-3.2993-3.7559-3.3477zm0.11133 1.0684c1.4802 0.06785 2.5809 0.91531 2.7285 2.3711 0.1675 1.6638-1.0432 2.7992-2.8457 2.9805-1.8025 0.1825-3.216-0.68781-3.3848-2.3516-0.1675-1.6638 1.0432-2.798 2.8457-2.9805 0.22531-0.02266 0.44479-0.02922 0.65625-0.01953zm57.846 1.817c-1.6425 0-2.7695 0.96039-2.7695 2.2129 0 1.1525 0.98609 2.1641 2.8086 2.1641 1 0 1.6116-0.38914 2.1816-0.90039l-0.237-0.155c-0.64875 0.57375-1.2338 0.75977-1.8438 0.75977-0.2425 0-0.8607-0.09336-1.1895-0.53711-0.28875-0.395-0.33594-0.98547-0.33594-1.3555 0-1.0425 0.30477-1.9863 1.4473-1.9863 0.89125 0 1.5485 0.72156 1.8223 1.2578h0.19531v-1.4434h-0.21094c-0.07875 0.155-0.14812 0.28516-0.35938 0.28516-0.2025 0-0.80602-0.30274-1.5098-0.30274zm13.918 0c-1.6438 0-2.7695 0.96039-2.7695 2.2129 0 1.1525 0.98609 2.1641 2.8086 2.1641 1 0 1.6084-0.38914 2.1797-0.90039l-0.235-0.155c-0.64875 0.57375-1.2338 0.75977-1.8438 0.75977-0.2425 0-0.8607-0.09336-1.1895-0.53711-0.29-0.395-0.33594-0.98547-0.33594-1.3555 0-1.0425 0.30477-1.9863 1.4473-1.9863 0.89 0 1.5466 0.72156 1.8203 1.2578h0.19531v-1.4434h-0.20898c-0.07875 0.155-0.15008 0.28516-0.36133 0.28516-0.20375 0-0.80406-0.30274-1.5078-0.30274zm-20.143 0.0059-1.7363 3.3789c-0.235 0.4625-0.34508 0.67195-0.76758 0.7207v0.1543h1.5879v-0.1543c-0.265-0.01125-0.64062-0.03063-0.64062-0.26562 0-0.0975 0.125-0.35117 0.34375-0.79492h1.7598c0.11 0.1975 0.35938 0.65406 0.35938 0.82031 0 0.20375-0.14 0.21023-0.625 0.24023v0.1543h2.5332v-0.1543c-0.37625 0.0125-0.50031-0.19742-0.85156-0.85742l-1.7441-3.2422h-0.21875zm-12.871 0.08594v0.15625c0.41375 0.03 0.65625 0.04891 0.65625 0.56641v2.7246c0 0.345-0.11008 0.42422-0.20508 0.48047-0.05375 0.03125-0.06867 0.03719-0.45117 0.08594v0.1543h2.6113v-0.1543c-0.53875-0.055-0.6875-0.06641-0.6875-0.56641v-1.1484c1.0325-0.005 1.4297-0.0099 1.9297-0.23242 0.625-0.27625 0.71289-0.71664 0.71289-0.93164 0-1.0425-1.4226-1.1348-2.0488-1.1348h-2.5176zm4.8555 0v0.1543c0.445 0.025 0.6875 0.03836 0.6875 0.56836v2.7246c0 0.5-0.15625 0.51766-0.6875 0.56641v0.1543h2.6426v-0.1543c-0.51625-0.055-0.6875-0.07391-0.6875-0.56641v-1.209h0.21094l1.6191 1.9297h1.6016v-0.1543c-0.09375 0-0.21156-0.0059-0.32031-0.11719l-1.5723-1.7559c0.4225-0.10625 1.2285-0.29719 1.2285-1.0547 0-1.0362-1.6576-1.0859-2.2051-1.0859h-2.5176zm17 0-0.02344 1.2383h0.22656c0.15625-0.98625 0.96352-1.016 1.5098-1.041v3.25c0 0.51875-0.18852 0.52891-0.75976 0.56641v0.1543h2.793v-0.1543c-0.58-0.03125-0.76562-0.04266-0.76562-0.56641v-3.25c0.53875 0.025 1.3425 0.05477 1.5 1.041h0.22656l-0.01563-1.2383h-4.6914zm5.0586 0v0.15625c0.36 0.0175 0.72852 0.0293 0.72852 0.43555v2.9844c0 0.3825-0.30602 0.40625-0.72852 0.4375v0.1543h2.7383v-0.1543c-0.43-0.025-0.74219-0.04375-0.74219-0.4375v-2.9844c0-0.41875 0.37469-0.4243 0.74219-0.43555v-0.15625h-2.7383zm8.6738 0v0.1543c0.36 0.0175 0.6875 0.03 0.6875 0.4375v2.9844c0 0.3825-0.24125 0.40125-0.6875 0.4375v0.1543h4.5742l0.3125-1.2812h-0.21875c-0.4925 0.93-1.2916 1.0918-2.0566 1.0918-0.50875 0-0.65625-0.07641-0.65625-0.34766v-1.4902c0.77375 0 1.1738 0.18508 1.2676 0.95508h0.20117v-2.084h-0.20117c-0.11875 0.765-0.51633 0.92422-1.2676 0.91797v-1.4316c0-0.26375 0.14031-0.28711 0.57031-0.28711 1.0562 0 1.611 0.15234 1.791 1.0273h0.19531v-1.2383h-4.5117zm-28.293 0.21094c0.62625 0 0.94726 0.26422 0.94726 0.88672 0 0.8025-0.40789 0.93711-1.4316 0.94336v-1.5723c0.03875-0.1925 0.05562-0.25781 0.48438-0.25781zm-4.9961 0.0059c0.64125 0 0.92188 0.23305 0.92188 0.93555 0 0.765-0.35062 0.94414-1.2969 0.93164v-1.6523c0.0075-0.135 0.11-0.21484 0.375-0.21484zm10.213 0.99805 0.78906 1.498h-1.5254l0.73633-1.498zm64.477 4.082c-1.7462-0.14125-2.8857 1.2581-3.1895 2.6719-0.52875 2.4712 1.3107 4.0354 3.1582 4.4316 0.8025 0.1725 2.1076 0.41844 3.4551-0.50781 0.46375-0.30875 1.0728-0.84117 1.3516-2.1387 0.2225-1.035-0.039-2.0827-0.64649-2.7539l1.0332-0.0332 0.14258-0.66406-4.0527-0.86914-0.71289 3.3242 0.87695 0.1875 0.50586-2.3633c0.8125 0.17375 1.4529 0.48688 1.8379 1.2656 0.32375 0.65375 0.2336 1.2762 0.15235 1.6562-0.4325 2.0162-2.1228 2.1835-3.6641 1.8535-1.985-0.42625-2.8323-1.7774-2.541-3.1387 0.18-0.835 0.69133-1.8847 2.0801-1.9297l0.21289-0.99219zm-111.39 0.31-7.5786 1.623l0.21875 1.0234 3.4414-0.73828 0.79687 3.7168 0.90625-0.19531-0.795-3.715 2.322-0.498 0.9043 4.2227 0.9082-0.19336-1.125-5.2461zm109.49 7.9199c-1.4275-0.10863-3.0512 0.40906-3.7871 2.4453-0.98125 2.7125 0.97617 4.3583 2.5449 4.9258 1.57 0.5675 4.1288 0.55555 5.1113-2.1582 0.98125-2.7138-0.97687-4.3602-2.5469-4.9277-0.39219-0.14188-0.84645-0.24894-1.3223-0.28516zm-0.29102 1.043c0.39854 0.01535 0.81829 0.09922 1.2461 0.25391 1.7112 0.61875 2.6142 2.0196 2.043 3.5996-0.57125 1.58-2.1618 2.0816-3.873 1.4629-1.7112-0.61875-2.6123-2.0216-2.041-3.6016 0.42938-1.1841 1.4294-1.7609 2.625-1.7148zm-107.59 1.397c-0.29842 0.01467-0.59359 0.08562-0.87109 0.20312-1.2388 0.525-1.12 1.7141-1.0312 2.2266l0.28125 1.6016c0.21875 1.2862 0.12727 1.7319-0.61523 2.0469-1.0212 0.43375-1.6958-0.65852-1.9883-1.3535-0.3875-0.91125-0.45672-2.1217 0.83203-2.668l-0.38281-0.90039c-0.66375 0.28125-1.208 0.65133-1.498 1.4863-0.1525 0.43875-0.33023 1.122 0.22852 2.4395 0.51625 1.22 1.6463 2.5888 3.3301 1.875 1.13-0.47875 1.3912-1.4088 1.2188-2.4238l-0.394-2.23c-0.0775-0.4575-0.06078-0.96641 0.54297-1.2227 1.08-0.45875 1.6812 0.49 1.9375 1.0938 0.34 0.8025 0.38148 1.8639-0.69727 2.3789l0.38281 0.90039c0.76625-0.37 2.1468-1.2488 1.0918-3.7363-0.54844-1.2928-1.4719-1.7628-2.3672-1.7188zm2.918 6.793c-0.73199 0.0348-1.5048 0.29219-2.2637 0.76562-2.5262 1.575-2.5823 3.6442-1.6523 5.1367 0.30875 0.495 1.6728 2.4398 4.3828 1.2598l-0.53711-0.86133c-1.7162 0.65125-2.6146-0.17446-2.9746-0.75195-1.015-1.6288-0.16859-2.9198 1.3789-3.8848 1.7312-1.0788 3.2099-0.66656 3.9512 0.52344 0.39375 0.6325 0.78391 1.7252-0.21484 2.6914l0.53516 0.85938c1.0188-0.8125 1.525-2.346 0.46875-4.041-0.74531-1.1961-1.8542-1.7553-3.0742-1.6973zm105.66 0.49023-1.8828 3.4102-5.9238-3.2676-0.5 0.91016 6.7285 3.7109 2.3828-4.3184-0.80469-0.44531zm-8.5 3.502c-0.99625-0.02016-2.0426 0.37492-2.9082 1.5293-1.7325 2.3088-0.34211 4.4577 0.99414 5.459 1.335 1.0012 3.7883 1.7345 5.5195-0.57422 1.7325-2.31 0.34211-4.4558-0.99414-5.457-0.66812-0.50125-1.6151-0.93688-2.6113-0.95703zm-0.26953 1.0371c0.72485-0.03516 1.5062 0.235 2.2344 0.78125 1.4562 1.0925 1.9059 2.6973 0.89844 4.041-1.0075 1.3438-2.6746 1.3588-4.1309 0.26758-1.4562-1.0925-1.9091-2.698-0.9004-4.043 0.50375-0.67188 1.1736-1.0117 1.8984-1.0469zm-91.182 0.79297-6.1094 4.7969 0.64844 0.82617 6.1094-4.7949-0.64844-0.82813zm1.9707 2.7129-5.6465 5.2598 3.8828 4.168 0.67578-0.63086-3.1699-3.4043 1.8867-1.7578 2.8789 3.0898 0.67578-0.63086-2.8789-3.0898 1.7285-1.6113 3.123 3.3516 0.67578-0.63086-3.832-4.1133zm83.652 1.0469-0.71875 0.71875 4.4375 4.4356-0.0176 0.0156-7.1797-1.6914-0.88086 0.87891 5.4902 5.4922 0.7207-0.71875-4.4356-4.4375 0.0137-0.0137 7.2285 1.6426 0.83399-0.83203-5.4922-5.4902zm-78.799 3.9668-4.7949 6.1113 0.79883 0.62696 3.875-4.9375 0.01758 0.0137-0.76758 7.375 0.92578 0.72656 4.7969-6.1094-0.80078-0.62696-3.873 4.9336-0.01758-0.0137 0.81836-7.332-0.97852-0.76757zm73.297 1.5312-0.83594 0.62696 1.9199 2.5586-3.2324 2.4238-1.918-2.5586-0.83594 0.62695 4.6387 6.1856 0.83594-0.62696-2.1641-2.8867 3.2305-2.4219 2.1641 2.8867 0.83594-0.62891-4.6387-6.1856zm-66.182 4.4277c-1.1691 0.0699-2.2645 0.79375-3.0684 2.043-1.605 2.4975-0.77383 4.3884 0.70117 5.3359 0.48875 0.315 2.5488 1.4844 4.4863-0.73438l-0.84961-0.54687c-1.27 1.32-2.4312 0.95609-3 0.58984-1.6112-1.035-1.3978-2.5611-0.41406-4.0898 1.1-1.71 2.6089-1.9672 3.7852-1.2109 0.62375 0.40125 1.4399 1.2194 0.95117 2.5156l0.84961 0.54883c0.57125-1.1675 0.37227-2.7675-1.3027-3.8438-0.70922-0.45609-1.4372-0.64936-2.1387-0.60742zm59.283 0.96289c-0.55827-0.0252-1.1783 0.10984-1.8359 0.46094-1.98 1.0575-2.402 3.1465-1.2832 5.2402 1.3975 2.6175 3.4511 2.8113 4.9961 1.9863 0.51125-0.2725 2.5387-1.5022 1.5449-4.2734l-0.89258 0.47657c0.5325 1.75-0.34781 2.5862-0.94531 2.9062-1.6862 0.90001-2.9133-0.0276-3.7695-1.6289-0.95625-1.7912-0.44734-3.2338 0.78516-3.8926 0.6525-0.34875 1.7664-0.66422 2.6602 0.39453l0.89062-0.47461c-0.4625-0.6664-1.2199-1.1533-2.1504-1.1953zm-53.264 2.0176-3.1699 7.0371 5.1953 2.3418 0.37891-0.84179-4.2441-1.9121 1.0586-2.3535 3.8535 1.7344 0.37891-0.8418-3.8516-1.7363 0.97266-2.1562 4.1758 1.8809 0.37891-0.84179-5.127-2.3106zm46.916 0.86133-5.1836 2.1992 3.0176 7.1133 5.252-2.2246-0.36328-0.85352-4.2891 1.8184-1.0078-2.377 3.8945-1.6504-0.36133-0.85352-3.8945 1.6524-0.92578-2.1816 4.2227-1.7891-0.36133-0.85351zm-6.0488 2.4394-6.0898 1.5078 0.22266 0.89844 2.5391-0.62891 1.6328 6.6035 1.0117-0.25195-1.6309-6.6035 2.5371-0.62695-0.22266-0.89844zm-29.268 0.92187-4.5234 6.8633 1.0449 0.23828 1.2773-2.0078 3.0117 0.6836 0.24609 2.3516 1.1074 0.25-1.0156-8.1172-1.1484-0.26172zm4.7051 1.0488-0.54297 7.7344 1.0137 0.0723 0.4375-6.248 0.02148 0.002 3.4941 6.5215 1.1738 0.082 0.54102-7.7324-1.0117-0.0723-0.4375 6.248-0.02148-0.002-3.4297-6.5176-1.2383-0.0879zm-4.4375 0.18946 0.02148 0.004 0.35742 3.5527-2.3301-0.52735 1.9512-3.0293zm15.572 0.1582-3.1348 0.15625 0.38672 7.7344 3.0918-0.15625c2.5412-0.1275 3.1839-2.4049 3.0977-4.1387-0.11125-2.2288-1.4277-3.697-3.4414-3.5957zm-0.09375 0.90039c1.4212-0.0712 2.3634 0.86445 2.4609 2.8144 0.09875 1.9488-0.73359 3.0595-2.0898 3.127l-2.0234 0.10156-0.29883-5.9453 1.9512-0.0977z" transform="matrix(.8 0 0 -.8 186.96 645.12)" fill="#fff"/><path d="m55.221 38.131c-2.8 0.2375-3.3395 0.1668-6.377 1.4668-2.2781 0.89886-4.0234 3.2873-4.2773 5.0879-0.69458 0.57888-1.3639 1.1692-2.0977 1.9766-0.50363 0.52641-0.92682 1.0072-1.3438 1.4883 0.08917-1.8881 0.51709-3.0787 0.99805-4.5039 0.78375-2.6575 1.3218-2.5855 2.1543-4.998-2.7 2.2688-3.1658 3.3102-4.3945 5.084-1.6233 2.3258-3.11 4.74-1.9355 9.0605-0.27297 0.51697-0.54378 1.0286-0.82227 1.625-0.35062 0.72129-0.65278 1.3854-0.93359 2.0312-0.31526-1.5196-0.28328-2.6345-0.27148-3.9277-0.05125-2.8438-0.12312-2.8774 0.51562-5.5137-1.8962 2.995-3.3329 5.3988-3.6191 6.8926-0.36536 2.6708 0.05448 5.598 1.668 8.0293-0.1713 0.97161-0.29602 2.0039-0.375 3.1738-0.05202 0.7837-0.06517 1.4796-0.07031 2.166-0.57414-1.3277-0.73912-2.6288-0.96484-3.8027-0.58125-2.7288-1.5498-4.273-1.8086-6.9805-0.7825 3.425-1.2502 7.8054-1.0352 9.3066 0.54258 2.6834 1.9312 5.3476 4.3887 7.168 0.1299 0.62962 0.26178 1.2581 0.4375 1.9648 0.25111 0.97891 0.51468 1.8617 0.78906 2.707-0.7362-0.42944-0.95385-0.63804-1.6504-1.6719-1.4862-2.2263-2.8517-2.5852-4.1367-5.084 0.5675 3.5388 2.1116 7.2734 2.7578 8.4434 1.7657 3.1987 3.7086 5.0051 6.7344 5.6914 0.49298 0.69448 1.0193 1.3997 1.625 2.1504 0.69581 0.84174 1.3548 1.5803 2.0117 2.252-1.0601-0.48975-2.0596-0.97109-3.3047-1.5625-2.328-1.119-3.692-1.836-5.947-3.101 1.7525 3.095 6.278 7.189 7.498 7.9277 2.5138 1.415 4.3073 1.7738 7.4961 1.2051-0.0019-0.0114-0.004-0.01988-0.0059-0.03125 0.43965 0.26424 0.89792 0.53166 1.3848 0.80664 1.37 0.79055 2.5063 1.3978 3.6641 1.918 0.01561 0.0244 0.02523 0.03979 0.04102 0.06445-1.45-0.035-2.4541-0.18-3.9629-0.34375-2.62-0.33875-4.2011-0.73234-6.8086-1.4648 2.5362 2.5288 7.2034 4.0352 8.6172 4.2227 3.2852 0.42572 3.665 0.10596 5.9688-1.1191 0.2024 0.056 0.36829 0.11643 0.58203 0.17188 0.47508 0.10953 0.91385 0.19105 1.3398 0.26367-0.15738 0.05455-0.32318 0.11572-0.47852 0.16602-3.4388 1.0488-5.1273 2.4856-9.9961 2.1543 2.175 1.2288 4.9412 1.8754 8.1875 1.293 1.7321-0.26863 5.1867-1.7338 7.5488-2.8672l-0.0078 0.05664c-0.96589 0.57714-1.8442 1.2285-2.8887 2.1211-1.2938 1.1275-2.1198 2.0248-3.1035 3.4473h1.293c0.98375-1.3862 1.7748-2.2116 3.1035-3.2754 1.3638-1.09 2.5838-2.1321 4.0488-2.4121v-0.07813c0.02935-0.0003 0.05612-0.0043 0.08594-0.0039v0.08203c1.43 0.28 2.6488 1.2846 4.0488 2.4121 1.4362 1.2062 2.2632 2.176 3.1895 3.791h1.4648c-1.0625-1.6512-1.9238-2.6566-3.3613-3.9629-0.37863-0.32383-0.72487-0.6027-1.0703-0.87304 2.0987 0.76243 4.4519 1.3678 5.7246 1.5625 3.21 0.58248 5.9734-0.0642 8.0996-1.293-4.8188 0.33125-6.5057-1.1056-9.9082-2.1543-0.15664-0.04993-0.34838-0.1163-0.51367-0.17188 0.41049-0.07166 0.83185-0.15283 1.2871-0.25976 0.21559-0.055 0.38194-0.11435 0.58594-0.16992 2.3465 1.2261 2.7251 1.545 5.9648 1.1191 1.465-0.1875 6.1315-1.6939 8.6152-4.2227-2.555 0.7325-4.1366 1.1261-6.8066 1.4648-1.4575 0.16375-2.4636 0.30875-3.9648 0.34375 0.007-0.01039 0.01066-0.017 0.01758-0.02734 1.1942-0.52704 2.3585-1.1455 3.7754-1.9531 0.46204-0.26344 0.8968-0.51997 1.3164-0.77344 3.2231 0.56256 5.0164 0.2024 7.4727-1.209 1.2712-0.73875 5.794-4.8327 7.584-7.9277-2.2912 1.265-3.656 1.9816-5.9473 3.1016-1.2696 0.59159-2.2713 1.0726-3.3242 1.5625 0.66146-0.67186 1.3269-1.4101 2.0312-2.252 0.60482-0.75758 1.131-1.4693 1.623-2.1699 3.0243-0.69988 4.9526-2.5011 6.7363-5.6719 0.61125-1.17 2.1556-4.9046 2.6719-8.4434-1.235 2.4988-2.5985 2.8577-4.1348 5.084-0.6641 1.038-0.87078 1.2447-1.6289 1.6777 0.26848-0.84713 0.52376-1.7315 0.76562-2.7129 0.18019-0.68681 0.31333-1.2966 0.44727-1.9102 2.4728-1.8212 3.8786-4.5128 4.3789-7.2227 0.265-1.5012-0.2039-5.8816-1.0352-9.3066-0.20875 2.7075-1.1777 4.2517-1.7227 6.9805-0.24568 1.1509-0.41789 2.424-0.98437 3.7246-0.002-0.66412-0.008-1.3327-0.0508-2.0879-0.0905-1.1954-0.2264-2.2464-0.4082-3.2363 1.619-2.4189 2.0233-5.319 1.6152-7.9668-0.23625-1.4938-1.6729-3.8976-3.6191-6.8926 0.69 2.6363 0.61852 2.6699 0.60352 5.5137-0.01655 1.2813 0.0088 2.3848-0.32226 3.8828-0.27459-0.6396-0.54416-1.2727-0.88477-1.9863-0.30031-0.62883-0.59081-1.1716-0.88281-1.7129 1.1771-4.2645-0.2972-6.663-1.875-8.9727-1.2638-1.7738-1.7305-2.8152-4.4805-5.084 0.88375 2.4125 1.4215 2.3405 2.2402 4.998 0.44942 1.4267 0.8752 2.6182 0.98828 4.5098-0.41368-0.48264-0.83387-0.96592-1.332-1.4941-0.74607-0.79908-1.4111-1.3777-2.0977-1.9512-0.27359-1.8034-2.0268-4.2103-4.2812-5.1133-3.0725-1.3-3.6112-1.2293-6.375-1.4668 1.1125 1.17 1.9754 1.8888 3.2754 2.8438 2.1439 1.5431 3.9034 2.4921 5.9961 3.332 0.81544 0.6774 1.5962 1.3475 2.4473 2.2695 0.61574 0.63969 1.1597 1.2271 1.6641 1.8027-1.3598-0.97071-2.4801-1.7017-4.0762-2.5781-1.8738-0.96875-3.094-1.5437-5.084-2.3262 2.025 2.65 3.4976 4.0491 6.2051 5.9453 2.2004 1.5364 3.7422 2.3615 6.0254 3.2559 0.31586 0.54878 0.62887 1.098 0.95312 1.7422 0.50915 1.072 0.93987 2.048 1.3066 2.9902-0.03857 0.12976-0.05544 0.23479-0.09961 0.37109-1.2725-1.4938-2.1698-2.428-3.6211-3.793-1.0988-0.93375-1.8499-1.6143-3.0137-2.498 0.84 2.2838 1.5924 3.6475 3.0137 5.6875 1.6124 2.2644 2.8958 3.586 5.0566 5.1855 0.14842 0.99948 0.24516 2.0627 0.2871 3.2578 0.0527 1.1468 0.0348 2.1382-0.0352 3.0781-0.0478 0.06585-0.08584 0.13147-0.13672 0.19726-0.595-2.1612-1.1709-3.4527-2.2422-5.4277-0.97625-1.7238-1.7634-2.7648-3.0996-4.3086 0.33 2.8 0.75945 4.4507 1.7207 7.0645 0.87631 2.5494 1.7506 4.2228 3.1465 6.3379-0.16196 0.71033-0.3456 1.4518-0.55859 2.2793-0.3624 1.286-0.71806 2.4435-1.0996 3.5215-0.0091 0.0052-0.01232 0.0065-0.02148 0.01172-0.09375-1.7662-0.27352-2.9515-0.60352-4.7402-0.42375-1.91-0.81828-3.1286-1.5508-4.9961-0.84625 3.1962-1.1708 5.2062-1.207 8.5312-0.09635 2.7472 0.0553 4.571 0.4668 7.0684-0.60312 0.89242-1.2898 1.7973-2.1035 2.7539-0.85165 1.0073-1.6585 1.8483-2.4688 2.5996 0.38248-1.0932 0.68207-1.9728 1.0039-3.2031 0.73125-2.5638 1.0914-4.1791 1.3789-6.8066-1.975 2.3762-3.0511 4.0279-4.3086 6.8066-1.0922 2.3239-1.6656 3.9807-2.1484 6.2285-0.9383 0.56168-1.9529 1.1118-3.1074 1.6992-0.38223 0.19332-0.70894 0.34568-1.0605 0.51758 0.56226-0.87695 1.1006-1.7401 1.75-2.8438 1.265-2.3125 2.0888-3.7491 3.1875-6.1191-2.6062 1.7225-4.0429 3.0175-6.1191 5.3438-1.68 2.0288-2.6965 3.4817-3.8398 5.5977-0.69557 0.18912-1.4385 0.35912-2.2773 0.51953-0.65582 0.13968-1.2594 0.2348-1.8379 0.30469-1.8115-0.51073-3.7507-0.76289-5.2871 0.2832-0.12851 0.007-0.23884 0.0071-0.37109 0.01563l0.06836 0.04687c-0.15345 0.06434-0.27719 0.12933-0.42188 0.19336l0.07813-0.08984c0.06347-0.03862 0.22901-0.11891 0.27539-0.15039-0.03688-0.01698-0.07267-0.02868-0.10938-0.04492l0.10938-0.12695c-0.15985-0.0066-0.28662-0.0051-0.43945-0.0098-1.7746-0.69028-3.338-0.53364-4.7754-0.14258-0.59937-0.05625-1.2315-0.14184-1.9375-0.2793-0.82944-0.15173-1.5685-0.31982-2.2598-0.50781-1.1111-2.1223-2.13-3.5769-3.8594-5.6094-2.0238-2.3262-3.4597-3.6212-6.1172-5.3438 1.1488 2.37 1.9754 3.8066 3.2754 6.1191 0.63258 1.1114 1.1612 1.9795 1.7129 2.8633-0.36756-0.17814-0.70945-0.33706-1.1113-0.53711-1.1472-0.59046-2.1551-1.144-3.0898-1.709-0.45116-2.2429-1.02-3.8982-2.0801-6.2188-1.2925-2.7788-2.3695-4.4304-4.3945-6.8066 0.3375 2.6275 0.69766 4.2429 1.3789 6.8066 0.36603 1.2371 0.67641 2.1187 1.084 3.2207-0.81011-0.7554-1.615-1.6026-2.4629-2.6172-0.84084-0.97802-1.5491-1.9006-2.166-2.8125 0.44014-2.4666 0.59266-4.2842 0.5293-7.0098-0.07125-3.325-0.39547-5.335-1.293-8.5312-0.68125 1.8675-1.0773 3.0861-1.4648 4.9961-0.35807 1.7488-0.53559 2.9328-0.67773 4.6348-0.36454-1.0516-0.70355-2.1785-1.0469-3.4277-0.22018-0.82218-0.4073-1.5593-0.57422-2.2656 1.3758-2.1215 2.2506-3.7969 3.1602-6.3516 0.9275-2.6138 1.3567-4.2645 1.6367-7.0645-1.285 1.5438-2.0744 2.5848-3.0156 4.3086-1.105 1.975-1.6799 3.2665-2.3262 5.4277-0.03641-0.04877-0.06287-0.09769-0.09766-0.14648-0.08201-0.95467-0.11161-1.9596-0.07422-3.127 0.05604-1.205 0.16382-2.2766 0.32227-3.2832 2.1877-1.5886 3.4675-2.9091 5.1055-5.1621 1.3862-2.04 2.1409-3.4038 2.9297-5.6875-1.1125 0.88375-1.8659 1.5643-2.9297 2.498-1.4862 1.365-2.3838 2.2992-3.7051 3.793-0.03095-0.10264-0.04235-0.1804-0.07031-0.2793 0.38037-0.97087 0.82746-1.9749 1.3633-3.082 0.31667-0.64322 0.62699-1.2175 0.9375-1.7656 2.2863-0.8853 3.8201-1.7095 5.9551-3.2324 2.7575-1.8962 4.2298-3.2953 6.291-5.9453-2.025 0.7825-3.2452 1.3574-5.084 2.3262-1.6753 0.90324-2.7818 1.6112-4.1797 2.6309 0.50871-0.59116 1.0606-1.1975 1.6816-1.8555 0.87011-0.9097 1.6468-1.5725 2.4434-2.2402 2.1043-0.84716 3.8736-1.8003 6-3.3613 1.35-0.955 2.2126-1.6738 3.3613-2.8438zm12.236 59.924 0.08594 0.06055v0.12305l-0.08594-0.002v-0.18164z" transform="matrix(.8 0 0 -.8 186.96 645.12)" fill="#fff"/></g></g></svg>
